<svg aria-hidden="true" style="width:0;height:0;position:absolute;overflow:hidden" xmlns="http://www.w3.org/2000/svg"><defs><symbol id="icon-desktop-contact-1" viewBox="0 0 32 32"><path fill="#f3848c" style="fill:var(--color1,#f3848c)" opacity=".12" d="M32 16c0 8.836-7.164 16-16 16S0 24.836 0 16 7.164 0 16 0s16 7.164 16 16zM6.186 16c0 5.42 4.394 9.814 9.814 9.814S25.814 21.42 25.814 16 21.42 6.186 16 6.186 6.186 10.58 6.186 16z"/></symbol><symbol id="icon-desktop-contact-2" viewBox="0 0 32 32"><path fill="#f3848c" style="fill:var(--color1,#f3848c)" opacity=".12" d="M32 16c0 8.837-7.163 16-16 16S0 24.837 0 16 7.163 0 16 0s16 7.163 16 16zM6.186 16c0 5.42 4.394 9.814 9.814 9.814S25.814 21.42 25.814 16 21.42 6.186 16 6.186 6.186 10.58 6.186 16z"/></symbol><symbol id="icon-desktop-contact-3" viewBox="0 0 32 32"><path d="M32 16c0 8.837-7.163 16-16 16S0 24.837 0 16 7.163 0 16 0s16 7.163 16 16zM4.17 16c0 6.534 5.297 11.83 11.83 11.83S27.83 22.533 27.83 16c0-6.534-5.297-11.83-11.83-11.83S4.17 9.467 4.17 16z"/></symbol><symbol id="icon-desktop-footer-1" viewBox="0 0 32 32"><path fill="#d68362" style="fill:var(--color2,#d68362)" opacity=".17" d="M32 16c0 8.836-7.164 16-16 16S0 24.836 0 16 7.164 0 16 0s16 7.164 16 16zM4.318 16c0 6.452 5.23 11.682 11.682 11.682S27.682 22.452 27.682 16 22.452 4.318 16 4.318 4.318 9.548 4.318 16z"/></symbol><symbol id="icon-desktop-footer-2" viewBox="0 0 32 32"><path fill="#e6c01c" style="fill:var(--color3,#e6c01c)" opacity=".06" d="M32 16c0 8.836-7.164 16-16 16S0 24.836 0 16 7.164 0 16 0s16 7.164 16 16zM6.186 16c0 5.42 4.394 9.814 9.814 9.814S25.814 21.42 25.814 16 21.42 6.186 16 6.186 6.186 10.58 6.186 16z"/></symbol><symbol id="icon-mobile-contact-1" viewBox="0 0 32 32"><path fill="#f3848c" style="fill:var(--color1,#f3848c)" opacity=".12" d="M32 16c0 8.837-7.163 16-16 16S0 24.837 0 16 7.163 0 16 0s16 7.163 16 16zM6.186 16c0 5.42 4.394 9.814 9.814 9.814S25.814 21.42 25.814 16 21.42 6.186 16 6.186 6.186 10.58 6.186 16z"/></symbol><symbol id="icon-mobile-contact-2" viewBox="0 0 32 32"><path fill="#f3848c" style="fill:var(--color1,#f3848c)" opacity=".12" d="M32 16c0 8.836-7.164 16-16 16S0 24.836 0 16 7.164 0 16 0s16 7.164 16 16zM6.187 16c0 5.42 4.394 9.813 9.813 9.813s9.813-4.394 9.813-9.813c0-5.42-4.394-9.813-9.813-9.813S6.187 10.581 6.187 16z"/></symbol><symbol id="icon-mobile-footer" viewBox="0 0 32 32"><path fill="#f3848c" style="fill:var(--color1,#f3848c)" opacity=".12" d="M32 16c0 8.837-7.163 16-16 16S0 24.837 0 16 7.163 0 16 0s16 7.163 16 16zM6.186 16c0 5.42 4.394 9.814 9.814 9.814S25.814 21.42 25.814 16 21.42 6.186 16 6.186 6.186 10.58 6.186 16z"/></symbol><symbol id="icon-tablet-contact" viewBox="0 0 26 32"><path d="M32 16c0 8.836-7.164 16-16 16S0 24.836 0 16 7.164 0 16 0s16 7.164 16 16zM4.17 16c0 6.534 5.297 11.83 11.83 11.83S27.83 22.533 27.83 16 22.533 4.17 16 4.17 4.17 9.467 4.17 16z"/></symbol><symbol id="icon-tablet-footer-1" viewBox="0 0 32 32"><path fill="#d68362" style="fill:var(--color2,#d68362)" opacity=".17" d="M32 16c0 8.836-7.164 16-16 16S0 24.836 0 16 7.164 0 16 0s16 7.164 16 16zM4.318 16c0 6.452 5.23 11.682 11.682 11.682S27.682 22.452 27.682 16 22.452 4.318 16 4.318 4.318 9.548 4.318 16z"/></symbol><symbol id="icon-tablet-footer-2" viewBox="0 0 32 32"><path d="M32 16c0 8.837-7.163 16-16 16S0 24.837 0 16 7.163 0 16 0s16 7.163 16 16zM4.17 16c0 6.534 5.297 11.83 11.83 11.83S27.83 22.533 27.83 16c0-6.534-5.297-11.83-11.83-11.83S4.17 9.467 4.17 16z"/></symbol><symbol id="icon-desktop-reg-1" viewBox="0 0 32 32"><path d="M32 16c0 8.836-7.164 16-16 16S0 24.836 0 16 7.164 0 16 0s16 7.164 16 16zM4.17 16c0 6.534 5.297 11.83 11.83 11.83S27.83 22.533 27.83 16 22.533 4.17 16 4.17 4.17 9.467 4.17 16z"/></symbol><symbol id="icon-desktop-reg-2" viewBox="0 0 32 32"><path fill="#d68362" style="fill:var(--color2,#d68362)" opacity=".15" d="M32 16c0 8.836-7.164 16-16 16S0 24.836 0 16 7.164 0 16 0s16 7.164 16 16zM6.162 16c0 5.433 4.404 9.838 9.838 9.838s9.838-4.404 9.838-9.838S21.434 6.162 16 6.162 6.162 10.566 6.162 16z"/></symbol><symbol id="icon-mobile-reg" viewBox="0 0 32 32"><path fill="#f3848c" style="fill:var(--color1,#f3848c)" opacity=".12" d="M32 16c0 8.837-7.163 16-16 16S0 24.837 0 16 7.163 0 16 0s16 7.163 16 16zM6.186 16c0 5.42 4.394 9.814 9.814 9.814S25.814 21.42 25.814 16 21.42 6.186 16 6.186 6.186 10.58 6.186 16z"/></symbol><symbol id="icon-tablet-reg-1" viewBox="0 0 32 32"><path fill="#f3848c" style="fill:var(--color1,#f3848c)" opacity=".12" d="M32 16c0 8.837-7.163 16-16 16S0 24.837 0 16 7.163 0 16 0s16 7.163 16 16zM6.186 16c0 5.42 4.394 9.814 9.814 9.814S25.814 21.42 25.814 16 21.42 6.186 16 6.186 6.186 10.58 6.186 16z"/></symbol><symbol id="icon-tablet-reg-2" viewBox="0 0 32 32"><path fill="#f3848c" style="fill:var(--color1,#f3848c)" opacity=".12" d="M27 16c0 8.836-7.164 16-16 16S-5 24.836-5 16 2.164 0 11 0s16 7.164 16 16zM1.186 16c0 5.42 4.394 9.814 9.814 9.814S20.814 21.42 20.814 16 16.42 6.186 11 6.186 1.186 10.58 1.186 16z"/></symbol></defs></svg>