<svg aria-hidden="true" style="width:0;height:0;position:absolute;overflow:hidden" xmlns="http://www.w3.org/2000/svg"><defs><symbol id="icon-element12" viewBox="0 0 32 32"><path d="M32 16c0 8.837-7.163 16-16 16S0 24.837 0 16 7.163 0 16 0s16 7.163 16 16zM9.599 16a6.401 6.401 0 1 0 12.802 0A6.401 6.401 0 0 0 9.6 16z"/></symbol><symbol id="icon-element11-1" viewBox="0 0 16 32"><path fill="#d68362" style="fill:var(--color1,#d68362)" opacity=".17" d="M16 16c0 8.837-7.163 16-16 16s-16-7.163-16-16S-8.837 0 0 0s16 7.163 16 16zm-27.682 0c0 6.452 5.23 11.682 11.682 11.682S11.682 22.452 11.682 16 6.452 4.318 0 4.318-11.682 9.548-11.682 16z"/></symbol><symbol id="icon-element5" viewBox="0 0 16 32"><path fill="#d68362" style="fill:var(--color1,#d68362)" opacity=".15" d="M32 16c0 8.837-7.163 16-16 16S0 24.837 0 16 7.163 0 16 0s16 7.163 16 16zM6.162 16c0 5.433 4.405 9.838 9.838 9.838s9.838-4.405 9.838-9.838c0-5.433-4.405-9.838-9.838-9.838S6.162 10.567 6.162 16z"/></symbol><symbol id="icon-element6" viewBox="0 0 32 32"><path fill="#f3848c" style="fill:var(--color2,#f3848c)" opacity=".12" d="M32 16c0 8.837-7.163 16-16 16S0 24.837 0 16 7.163 0 16 0s16 7.163 16 16zM6.186 16c0 5.42 4.394 9.814 9.814 9.814S25.814 21.42 25.814 16 21.42 6.186 16 6.186 6.186 10.58 6.186 16z"/></symbol><symbol id="icon-element10" viewBox="0 0 32 32"><path fill="#e6c01c" style="fill:var(--color3,#e6c01c)" opacity=".06" d="M32 16c0 8.837-7.163 16-16 16S0 24.837 0 16 7.163 0 16 0s16 7.163 16 16zM6.186 16c0 5.42 4.394 9.814 9.814 9.814S25.814 21.42 25.814 16 21.42 6.186 16 6.186 6.186 10.58 6.186 16z"/></symbol><symbol id="icon-element11" viewBox="0 0 32 32"><path d="M32 16c0 8.837-7.163 16-16 16S0 24.837 0 16 7.163 0 16 0s16 7.163 16 16zM9.599 16a6.401 6.401 0 1 0 12.802 0A6.401 6.401 0 0 0 9.6 16z"/></symbol><symbol id="icon-element17" viewBox="0 0 32 32"><path d="M32 16c0 8.837-7.163 16-16 16S0 24.837 0 16 7.163 0 16 0s16 7.163 16 16zM9.599 16a6.401 6.401 0 1 0 12.802 0A6.401 6.401 0 0 0 9.6 16z"/></symbol><symbol id="icon-element16" viewBox="0 0 22 32"><path fill="#d68362" style="fill:var(--color1,#d68362)" opacity=".17" d="M32 16c0 8.837-7.163 16-16 16S0 24.837 0 16 7.163 0 16 0s16 7.163 16 16zM4.318 16c0 6.452 5.23 11.682 11.682 11.682S27.682 22.452 27.682 16 22.452 4.318 16 4.318 4.318 9.548 4.318 16z"/></symbol></defs></svg>