<svg aria-hidden="true" style="width:0;height:0;position:absolute;overflow:hidden" xmlns="http://www.w3.org/2000/svg"><defs><symbol id="icon-element12" viewBox="0 0 32 32"><path d="M32 16c0 8.837-7.163 16-16 16S0 24.837 0 16 7.163 0 16 0s16 7.163 16 16zM9.599 16a6.401 6.401 0 1 0 12.802 0A6.401 6.401 0 0 0 9.6 16z"/></symbol><symbol id="icon-element11-1" viewBox="0 0 16 32"><path fill="#d68362" style="fill:var(--color1,#d68362)" opacity=".17" d="M16 16c0 8.837-7.163 16-16 16s-16-7.163-16-16S-8.837 0 0 0s16 7.163 16 16zm-27.682 0c0 6.452 5.23 11.682 11.682 11.682S11.682 22.452 11.682 16 6.452 4.318 0 4.318-11.682 9.548-11.682 16z"/></symbol><symbol id="icon-element5" viewBox="0 0 16 32"><path fill="#d68362" style="fill:var(--color1,#d68362)" opacity=".15" d="M32 16c0 8.837-7.163 16-16 16S0 24.837 0 16 7.163 0 16 0s16 7.163 16 16zM6.162 16c0 5.433 4.405 9.838 9.838 9.838s9.838-4.405 9.838-9.838c0-5.433-4.405-9.838-9.838-9.838S6.162 10.567 6.162 16z"/></symbol><symbol id="icon-element6" viewBox="0 0 32 32"><path fill="#f3848c" style="fill:var(--color2,#f3848c)" opacity=".12" d="M32 16c0 8.837-7.163 16-16 16S0 24.837 0 16 7.163 0 16 0s16 7.163 16 16zM6.186 16c0 5.42 4.394 9.814 9.814 9.814S25.814 21.42 25.814 16 21.42 6.186 16 6.186 6.186 10.58 6.186 16z"/></symbol><symbol id="icon-element10" viewBox="0 0 32 32"><path fill="#e6c01c" style="fill:var(--color3,#e6c01c)" opacity=".06" d="M32 16c0 8.837-7.163 16-16 16S0 24.837 0 16 7.163 0 16 0s16 7.163 16 16zM6.186 16c0 5.42 4.394 9.814 9.814 9.814S25.814 21.42 25.814 16 21.42 6.186 16 6.186 6.186 10.58 6.186 16z"/></symbol><symbol id="icon-element11" viewBox="0 0 32 32"><path d="M32 16c0 8.837-7.163 16-16 16S0 24.837 0 16 7.163 0 16 0s16 7.163 16 16zM9.599 16a6.401 6.401 0 1 0 12.802 0A6.401 6.401 0 0 0 9.6 16z"/></symbol><symbol id="icon-element17" viewBox="0 0 32 32"><path d="M32 16c0 8.837-7.163 16-16 16S0 24.837 0 16 7.163 0 16 0s16 7.163 16 16zM9.599 16a6.401 6.401 0 1 0 12.802 0A6.401 6.401 0 0 0 9.6 16z"/></symbol><symbol id="icon-element16" viewBox="0 0 22 32"><path fill="#d68362" style="fill:var(--color1,#d68362)" opacity=".17" d="M32 16c0 8.837-7.163 16-16 16S0 24.837 0 16 7.163 0 16 0s16 7.163 16 16zM4.318 16c0 6.452 5.23 11.682 11.682 11.682S27.682 22.452 27.682 16 22.452 4.318 16 4.318 4.318 9.548 4.318 16z"/></symbol><symbol id="about-us-icon1" viewBox="0 0 32 32"><path fill="#f3848c" style="fill:var(--color1,#f3848c)" opacity=".12" d="M32 16c0 8.837-7.163 16-16 16S0 24.837 0 16 7.163 0 16 0s16 7.163 16 16zM6.186 16c0 5.42 4.394 9.814 9.814 9.814S25.814 21.42 25.814 16 21.42 6.186 16 6.186 6.186 10.58 6.186 16z"/></symbol><symbol id="about-us-icon2" viewBox="0 0 32 32"><path fill="#f3848c" style="fill:var(--color1,#f3848c)" opacity=".12" d="M32 16c0 8.837-7.163 16-16 16S0 24.837 0 16 7.163 0 16 0s16 7.163 16 16zM6.186 16c0 5.42 4.394 9.814 9.814 9.814S25.814 21.42 25.814 16 21.42 6.186 16 6.186 6.186 10.58 6.186 16z"/></symbol><symbol id="bagel-hero" viewBox="0 0 150 150"><path d="M150 75c0 41.421-33.579 75-75 75S0 116.421 0 75 33.579 0 75 0s75 33.579 75 75ZM28.996 75c0 25.408 20.596 46.004 46.004 46.004 25.408 0 46.004-20.596 46.004-46.004 0-25.408-20.596-46.004-46.004-46.004-25.408 0-46.004 20.596-46.004 46.004Z" fill-opacity=".12"/></symbol><symbol id="bagel-menu" viewBox="0 0 100 100"><path d="M100 50c0 27.614-22.386 50-50 50S0 77.614 0 50 22.386 0 50 0s50 22.386 50 50Zm-86.97 0c0 20.418 16.552 36.97 36.97 36.97S86.97 70.418 86.97 50 70.418 13.03 50 13.03 13.03 29.582 13.03 50Z" fill-opacity=".12"/></symbol><symbol id="icon-mmenu-open" viewBox="0 0 40 40"><path fill-rule="evenodd" clip-rule="evenodd" d="M8 14.667V12h24v2.667H8Zm0 6.666h24v-2.666H8v2.666ZM8 28h24v-2.667H8V28Z"/></symbol><symbol id="icon-mmenu-close" viewBox="0 0 40 40"><path d="M29.667 12.88 27.787 11l-7.454 7.453L12.88 11 11 12.88l7.453 7.453L11 27.787l1.88 1.88 7.453-7.454 7.454 7.454 1.88-1.88-7.454-7.454 7.454-7.453Z"/></symbol><symbol id="icon-twitter" viewBox="0 0 32 32"><path d="M32 6.078c-1.19.522-2.458.868-3.78 1.036a6.523 6.523 0 0 0 2.886-3.626 13.11 13.11 0 0 1-4.16 1.588A6.574 6.574 0 0 0 22.154 3c-3.632 0-6.556 2.948-6.556 6.562 0 .52.044 1.02.152 1.496-5.454-.266-10.28-2.88-13.522-6.862a6.605 6.605 0 0 0-.898 3.316 6.57 6.57 0 0 0 2.914 5.452 6.479 6.479 0 0 1-2.964-.808v.072c0 3.188 2.274 5.836 5.256 6.446a6.548 6.548 0 0 1-1.72.216 5.8 5.8 0 0 1-1.242-.112c.85 2.598 3.262 4.508 6.13 4.57a13.182 13.182 0 0 1-8.134 2.798c-.538 0-1.054-.024-1.57-.09A18.469 18.469 0 0 0 10.064 29c12.072 0 18.672-10 18.672-18.668 0-.29-.01-.57-.024-.848A13.087 13.087 0 0 0 32 6.078z"/></symbol><symbol id="icon-insta" viewBox="0 0 32 32"><path d="M31.969 9.408c-.075-1.7-.35-2.869-.744-3.882a7.806 7.806 0 0 0-1.851-2.838A7.867 7.867 0 0 0 26.542.844C25.523.45 24.36.175 22.66.1 20.947.019 20.403 0 16.059 0s-4.888.019-6.595.094c-1.7.075-2.869.35-3.882.744a7.803 7.803 0 0 0-2.838 1.85A7.867 7.867 0 0 0 .9 5.52C.506 6.539.231 7.702.156 9.402c-.081 1.713-.1 2.257-.1 6.601s.019 4.888.094 6.595c.075 1.7.35 2.869.744 3.882a7.895 7.895 0 0 0 1.85 2.838 7.867 7.867 0 0 0 2.832 1.844c1.019.394 2.182.669 3.882.744 1.706.075 2.25.094 6.595.094s4.888-.019 6.595-.094c1.7-.075 2.869-.35 3.882-.744a8.184 8.184 0 0 0 4.682-4.682c.394-1.019.669-2.182.744-3.882.075-1.707.094-2.251.094-6.595s-.006-4.888-.081-6.595zm-2.882 13.065c-.069 1.563-.331 2.407-.55 2.969a5.31 5.31 0 0 1-3.038 3.038c-.563.219-1.413.481-2.969.55-1.688.075-2.194.094-6.464.094s-4.782-.019-6.464-.094c-1.563-.069-2.407-.331-2.969-.55a4.926 4.926 0 0 1-1.838-1.194 4.974 4.974 0 0 1-1.194-1.838c-.219-.563-.481-1.413-.55-2.969-.075-1.688-.094-2.194-.094-6.464s.019-4.782.094-6.464c.069-1.563.331-2.407.55-2.969a4.868 4.868 0 0 1 1.2-1.838A4.974 4.974 0 0 1 6.639 3.55c.563-.219 1.413-.481 2.969-.55 1.688-.075 2.194-.094 6.464-.094 4.276 0 4.782.019 6.464.094 1.563.069 2.407.331 2.969.55a4.914 4.914 0 0 1 1.838 1.194 4.974 4.974 0 0 1 1.194 1.838c.219.563.481 1.413.55 2.969.075 1.688.094 2.194.094 6.464s-.019 4.77-.094 6.458z"/><path d="M16.059 7.783c-4.538 0-8.22 3.682-8.22 8.22s3.682 8.22 8.22 8.22 8.22-3.682 8.22-8.22-3.682-8.22-8.22-8.22zm0 13.552a5.333 5.333 0 0 1 0-10.664 5.333 5.333 0 0 1 0 10.664zM26.524 7.458a1.919 1.919 0 1 1-3.838 0 1.919 1.919 0 0 1 3.838 0z"/></symbol><symbol id="icon-facebook" viewBox="0 0 32 32"><path d="M21.329 5.313h2.921V.225C23.746.156 22.013 0 19.994 0c-4.212 0-7.097 2.649-7.097 7.519V12H8.249v5.688h4.648V32h5.699V17.689h4.46l.708-5.688h-5.169V8.082c.001-1.644.444-2.769 2.735-2.769z"/></symbol><symbol id="icon-desktop-contact-1" viewBox="0 0 32 32"><path fill="#f3848c" style="fill:var(--color1,#f3848c)" opacity=".12" d="M32 16c0 8.836-7.164 16-16 16S0 24.836 0 16 7.164 0 16 0s16 7.164 16 16zM6.186 16c0 5.42 4.394 9.814 9.814 9.814S25.814 21.42 25.814 16 21.42 6.186 16 6.186 6.186 10.58 6.186 16z"/></symbol><symbol id="icon-desktop-contact-2" viewBox="0 0 32 32"><path fill="#f3848c" style="fill:var(--color1,#f3848c)" opacity=".12" d="M32 16c0 8.837-7.163 16-16 16S0 24.837 0 16 7.163 0 16 0s16 7.163 16 16zM6.186 16c0 5.42 4.394 9.814 9.814 9.814S25.814 21.42 25.814 16 21.42 6.186 16 6.186 6.186 10.58 6.186 16z"/></symbol><symbol id="icon-desktop-contact-3" viewBox="0 0 32 32"><path d="M32 16c0 8.837-7.163 16-16 16S0 24.837 0 16 7.163 0 16 0s16 7.163 16 16zM4.17 16c0 6.534 5.297 11.83 11.83 11.83S27.83 22.533 27.83 16c0-6.534-5.297-11.83-11.83-11.83S4.17 9.467 4.17 16z"/></symbol><symbol id="icon-desktop-footer-1" viewBox="0 0 32 32"><path fill="#d68362" style="fill:var(--color2,#d68362)" opacity=".17" d="M32 16c0 8.836-7.164 16-16 16S0 24.836 0 16 7.164 0 16 0s16 7.164 16 16zM4.318 16c0 6.452 5.23 11.682 11.682 11.682S27.682 22.452 27.682 16 22.452 4.318 16 4.318 4.318 9.548 4.318 16z"/></symbol><symbol id="icon-desktop-footer-2" viewBox="0 0 32 32"><path fill="#e6c01c" style="fill:var(--color3,#e6c01c)" opacity=".06" d="M32 16c0 8.836-7.164 16-16 16S0 24.836 0 16 7.164 0 16 0s16 7.164 16 16zM6.186 16c0 5.42 4.394 9.814 9.814 9.814S25.814 21.42 25.814 16 21.42 6.186 16 6.186 6.186 10.58 6.186 16z"/></symbol><symbol id="icon-mobile-contact-1" viewBox="0 0 32 32"><path fill="#f3848c" style="fill:var(--color1,#f3848c)" opacity=".12" d="M32 16c0 8.837-7.163 16-16 16S0 24.837 0 16 7.163 0 16 0s16 7.163 16 16zM6.186 16c0 5.42 4.394 9.814 9.814 9.814S25.814 21.42 25.814 16 21.42 6.186 16 6.186 6.186 10.58 6.186 16z"/></symbol><symbol id="icon-mobile-contact-2" viewBox="0 0 32 32"><path fill="#f3848c" style="fill:var(--color1,#f3848c)" opacity=".12" d="M32 16c0 8.836-7.164 16-16 16S0 24.836 0 16 7.164 0 16 0s16 7.164 16 16zM6.187 16c0 5.42 4.394 9.813 9.813 9.813s9.813-4.394 9.813-9.813c0-5.42-4.394-9.813-9.813-9.813S6.187 10.581 6.187 16z"/></symbol><symbol id="icon-mobile-footer" viewBox="0 0 32 32"><path fill="#f3848c" style="fill:var(--color1,#f3848c)" opacity=".12" d="M32 16c0 8.837-7.163 16-16 16S0 24.837 0 16 7.163 0 16 0s16 7.163 16 16zM6.186 16c0 5.42 4.394 9.814 9.814 9.814S25.814 21.42 25.814 16 21.42 6.186 16 6.186 6.186 10.58 6.186 16z"/></symbol><symbol id="icon-tablet-contact" viewBox="0 0 26 32"><path d="M32 16c0 8.836-7.164 16-16 16S0 24.836 0 16 7.164 0 16 0s16 7.164 16 16zM4.17 16c0 6.534 5.297 11.83 11.83 11.83S27.83 22.533 27.83 16 22.533 4.17 16 4.17 4.17 9.467 4.17 16z"/></symbol><symbol id="icon-tablet-footer-1" viewBox="0 0 32 32"><path fill="#d68362" style="fill:var(--color2,#d68362)" opacity=".17" d="M32 16c0 8.836-7.164 16-16 16S0 24.836 0 16 7.164 0 16 0s16 7.164 16 16zM4.318 16c0 6.452 5.23 11.682 11.682 11.682S27.682 22.452 27.682 16 22.452 4.318 16 4.318 4.318 9.548 4.318 16z"/></symbol><symbol id="icon-tablet-footer-2" viewBox="0 0 32 32"><path d="M32 16c0 8.837-7.163 16-16 16S0 24.837 0 16 7.163 0 16 0s16 7.163 16 16zM4.17 16c0 6.534 5.297 11.83 11.83 11.83S27.83 22.533 27.83 16c0-6.534-5.297-11.83-11.83-11.83S4.17 9.467 4.17 16z"/></symbol><symbol id="icon-desktop-reg-1" viewBox="0 0 32 32"><path d="M32 16c0 8.836-7.164 16-16 16S0 24.836 0 16 7.164 0 16 0s16 7.164 16 16zM4.17 16c0 6.534 5.297 11.83 11.83 11.83S27.83 22.533 27.83 16 22.533 4.17 16 4.17 4.17 9.467 4.17 16z"/></symbol><symbol id="icon-desktop-reg-2" viewBox="0 0 32 32"><path fill="#d68362" style="fill:var(--color2,#d68362)" opacity=".15" d="M32 16c0 8.836-7.164 16-16 16S0 24.836 0 16 7.164 0 16 0s16 7.164 16 16zM6.162 16c0 5.433 4.404 9.838 9.838 9.838s9.838-4.404 9.838-9.838S21.434 6.162 16 6.162 6.162 10.566 6.162 16z"/></symbol><symbol id="icon-mobile-reg" viewBox="0 0 32 32"><path fill="#f3848c" style="fill:var(--color1,#f3848c)" opacity=".12" d="M32 16c0 8.837-7.163 16-16 16S0 24.837 0 16 7.163 0 16 0s16 7.163 16 16zM6.186 16c0 5.42 4.394 9.814 9.814 9.814S25.814 21.42 25.814 16 21.42 6.186 16 6.186 6.186 10.58 6.186 16z"/></symbol><symbol id="icon-tablet-reg-1" viewBox="0 0 32 32"><path fill="#f3848c" style="fill:var(--color1,#f3848c)" opacity=".12" d="M32 16c0 8.837-7.163 16-16 16S0 24.837 0 16 7.163 0 16 0s16 7.163 16 16zM6.186 16c0 5.42 4.394 9.814 9.814 9.814S25.814 21.42 25.814 16 21.42 6.186 16 6.186 6.186 10.58 6.186 16z"/></symbol><symbol id="icon-tablet-reg-2" viewBox="0 0 32 32"><path fill="#f3848c" style="fill:var(--color1,#f3848c)" opacity=".12" d="M27 16c0 8.836-7.164 16-16 16S-5 24.836-5 16 2.164 0 11 0s16 7.164 16 16zM1.186 16c0 5.42 4.394 9.814 9.814 9.814S20.814 21.42 20.814 16 16.42 6.186 11 6.186 1.186 10.58 1.186 16z"/></symbol><symbol id="icon-phone" viewBox="0 0 32 32"><path d="M29.43 20.473h-.034a18.56 18.56 0 0 1-5.804-.924l.131.037c-.894-.295-1.991-.025-2.535.522l-3.599 2.649c-4.172-2.171-6.742-4.677-8.938-8.714l2.634-3.414a2.48 2.48 0 0 0 .638-2.555c-.577-1.654-.911-3.56-.911-5.544v-.028.001C11.01 1.125 9.855 0 8.442 0H2.566C1.151 0-.001 1.122-.001 2.503c0 15.818 13.201 28.689 29.43 28.689 1.415 0 2.567-1.125 2.567-2.503v-5.711c0-1.381-1.152-2.506-2.567-2.506z"/></symbol><symbol id="icon-location" viewBox="0 0 23 32"><path d="M11.733 0c6.47 0 11.733 5.131 11.733 11.439a11.17 11.17 0 0 1-2.34 6.857l-8.67 11.379c-.021.028-.055.038-.079.064a.886.886 0 0 1-1.364-.062l-.002-.002c-2.5-3.243-7.076-9.31-8.834-11.597l-.002-.002-.011-.015a11.077 11.077 0 0 1-2.165-6.607v-.016.001C-.001 5.131 5.262 0 11.732 0zm0 17.609c3.484 0 6.33-2.773 6.33-6.17s-2.846-6.172-6.33-6.172-6.33 2.773-6.33 6.172c0 3.394 2.846 6.17 6.33 6.17z"/></symbol></defs></svg>