<svg aria-hidden="true" style="width:0;height:0;position:absolute;overflow:hidden" xmlns="http://www.w3.org/2000/svg"><defs><symbol id="about-us-icon1" viewBox="0 0 32 32"><path fill="#f3848c" style="fill:var(--color1,#f3848c)" opacity=".12" d="M32 16c0 8.837-7.163 16-16 16S0 24.837 0 16 7.163 0 16 0s16 7.163 16 16zM6.186 16c0 5.42 4.394 9.814 9.814 9.814S25.814 21.42 25.814 16 21.42 6.186 16 6.186 6.186 10.58 6.186 16z"/></symbol><symbol id="about-us-icon2" viewBox="0 0 32 32"><path fill="#f3848c" style="fill:var(--color1,#f3848c)" opacity=".12" d="M32 16c0 8.837-7.163 16-16 16S0 24.837 0 16 7.163 0 16 0s16 7.163 16 16zM6.186 16c0 5.42 4.394 9.814 9.814 9.814S25.814 21.42 25.814 16 21.42 6.186 16 6.186 6.186 10.58 6.186 16z"/></symbol></defs></svg>