<svg aria-hidden="true" style="position: absolute; width: 0; height: 0; overflow: hidden;" version="1.1" xmlns="http://www.w3.org/2000/svg" xmlns:xlink="http://www.w3.org/1999/xlink">
<defs>
<symbol id="icon-desktop-contact-1" viewBox="0 0 32 32">
<path fill="#f3848c" style="fill: var(--color1, #f3848c)" opacity="0.12" d="M32 16c0 8.836-7.164 16-16 16s-16-7.164-16-16 7.164-16 16-16 16 7.164 16 16zM6.186 16c0 5.42 4.394 9.814 9.814 9.814s9.814-4.394 9.814-9.814c0-5.42-4.394-9.814-9.814-9.814s-9.814 4.394-9.814 9.814z"></path>
</symbol>
<symbol id="icon-desktop-contact-2" viewBox="0 0 32 32">
<path fill="#f3848c" style="fill: var(--color1, #f3848c)" opacity="0.12" d="M32 16c0 8.837-7.163 16-16 16s-16-7.163-16-16 7.163-16 16-16 16 7.163 16 16zM6.186 16c0 5.42 4.394 9.814 9.814 9.814s9.814-4.394 9.814-9.814-4.394-9.814-9.814-9.814-9.814 4.394-9.814 9.814z"></path>
</symbol>
<symbol id="icon-desktop-contact-3" viewBox="0 0 32 32">
<path d="M32 16c0 8.837-7.163 16-16 16s-16-7.163-16-16 7.163-16 16-16 16 7.163 16 16zM4.17 16c0 6.534 5.297 11.83 11.83 11.83s11.83-5.297 11.83-11.83v0c0-6.534-5.297-11.83-11.83-11.83s-11.83 5.297-11.83 11.83v0z"></path>
</symbol>
<symbol id="icon-desktop-footer-1" viewBox="0 0 32 32">
<path fill="#d68362" style="fill: var(--color2, #d68362)" opacity="0.17" d="M32 16c0 8.836-7.164 16-16 16s-16-7.164-16-16 7.164-16 16-16 16 7.164 16 16zM4.318 16c0 6.452 5.23 11.682 11.682 11.682s11.682-5.23 11.682-11.682-5.23-11.682-11.682-11.682-11.682 5.23-11.682 11.682z"></path>
</symbol>
<symbol id="icon-desktop-footer-2" viewBox="0 0 32 32">
<path fill="#e6c01c" style="fill: var(--color3, #e6c01c)" opacity="0.06" d="M32 16c0 8.836-7.164 16-16 16s-16-7.164-16-16 7.164-16 16-16 16 7.164 16 16zM6.186 16c0 5.42 4.394 9.814 9.814 9.814s9.814-4.394 9.814-9.814c0-5.42-4.394-9.814-9.814-9.814s-9.814 4.394-9.814 9.814z"></path>
</symbol>
<symbol id="icon-mobile-contact-1" viewBox="0 0 32 32">
<path fill="#f3848c" style="fill: var(--color1, #f3848c)" opacity="0.12" d="M32 16c0 8.837-7.163 16-16 16s-16-7.163-16-16 7.163-16 16-16 16 7.163 16 16zM6.186 16c0 5.42 4.394 9.814 9.814 9.814s9.814-4.394 9.814-9.814-4.394-9.814-9.814-9.814-9.814 4.394-9.814 9.814z"></path>
</symbol>
<symbol id="icon-mobile-contact-2" viewBox="0 0 32 32">
<path fill="#f3848c" style="fill: var(--color1, #f3848c)" opacity="0.12" d="M32 16c0 8.836-7.164 16-16 16s-16-7.164-16-16c0-8.836 7.164-16 16-16s16 7.164 16 16zM6.187 16c0 5.42 4.394 9.813 9.813 9.813s9.813-4.394 9.813-9.813v0c0-5.42-4.394-9.813-9.813-9.813s-9.813 4.394-9.813 9.813v0z"></path>
</symbol>
<symbol id="icon-mobile-footer" viewBox="0 0 32 32">
<path fill="#f3848c" style="fill: var(--color1, #f3848c)" opacity="0.12" d="M32 16c0 8.837-7.163 16-16 16s-16-7.163-16-16 7.163-16 16-16 16 7.163 16 16zM6.186 16c0 5.42 4.394 9.814 9.814 9.814s9.814-4.394 9.814-9.814c0-5.42-4.394-9.814-9.814-9.814s-9.814 4.394-9.814 9.814z"></path>
</symbol>
<symbol id="icon-tablet-contact" viewBox="0 0 26 32">
<path d="M32 16c0 8.836-7.164 16-16 16s-16-7.164-16-16 7.164-16 16-16 16 7.164 16 16zM4.17 16c0 6.534 5.297 11.83 11.83 11.83s11.83-5.297 11.83-11.83-5.297-11.83-11.83-11.83-11.83 5.297-11.83 11.83z"></path>
</symbol>
<symbol id="icon-tablet-footer-1" viewBox="0 0 32 32">
<path fill="#d68362" style="fill: var(--color2, #d68362)" opacity="0.17" d="M32 16c0 8.836-7.164 16-16 16s-16-7.164-16-16 7.164-16 16-16 16 7.164 16 16zM4.318 16c0 6.452 5.23 11.682 11.682 11.682s11.682-5.23 11.682-11.682-5.23-11.682-11.682-11.682-11.682 5.23-11.682 11.682z"></path>
</symbol>
<symbol id="icon-tablet-footer-2" viewBox="0 0 32 32">
<path d="M32 16c0 8.837-7.163 16-16 16s-16-7.163-16-16 7.163-16 16-16 16 7.163 16 16zM4.17 16c0 6.534 5.297 11.83 11.83 11.83s11.83-5.297 11.83-11.83v0c0-6.534-5.297-11.83-11.83-11.83s-11.83 5.297-11.83 11.83v0z"></path>
</symbol>
<symbol id="icon-desktop-reg-1" viewBox="0 0 32 32">
<path d="M32 16c0 8.836-7.164 16-16 16s-16-7.164-16-16 7.164-16 16-16 16 7.164 16 16zM4.17 16c0 6.534 5.297 11.83 11.83 11.83s11.83-5.297 11.83-11.83-5.297-11.83-11.83-11.83-11.83 5.297-11.83 11.83z"></path>
</symbol>
<symbol id="icon-desktop-reg-2" viewBox="0 0 32 32">
<path fill="#d68362" style="fill: var(--color2, #d68362)" opacity="0.15" d="M32 16c0 8.836-7.164 16-16 16s-16-7.164-16-16 7.164-16 16-16 16 7.164 16 16zM6.162 16c0 5.433 4.404 9.838 9.838 9.838s9.838-4.404 9.838-9.838-4.404-9.838-9.838-9.838-9.838 4.404-9.838 9.838z"></path>
</symbol>
<symbol id="icon-mobile-reg" viewBox="0 0 32 32">
<path fill="#f3848c" style="fill: var(--color1, #f3848c)" opacity="0.12" d="M32 16c0 8.837-7.163 16-16 16s-16-7.163-16-16 7.163-16 16-16 16 7.163 16 16zM6.186 16c0 5.42 4.394 9.814 9.814 9.814s9.814-4.394 9.814-9.814c0-5.42-4.394-9.814-9.814-9.814s-9.814 4.394-9.814 9.814z"></path>
</symbol>
<symbol id="icon-tablet-reg-1" viewBox="0 0 32 32">
<path fill="#f3848c" style="fill: var(--color1, #f3848c)" opacity="0.12" d="M32 16c0 8.837-7.163 16-16 16s-16-7.163-16-16 7.163-16 16-16 16 7.163 16 16zM6.186 16c0 5.42 4.394 9.814 9.814 9.814s9.814-4.394 9.814-9.814-4.394-9.814-9.814-9.814-9.814 4.394-9.814 9.814z"></path>
</symbol>
<symbol id="icon-tablet-reg-2" viewBox="0 0 32 32">
<path fill="#f3848c" style="fill: var(--color1, #f3848c)" opacity="0.12" d="M27 16c0 8.836-7.164 16-16 16s-16-7.164-16-16 7.164-16 16-16 16 7.164 16 16zM1.186 16c0 5.42 4.394 9.814 9.814 9.814s9.814-4.394 9.814-9.814c0-5.42-4.394-9.814-9.814-9.814s-9.814 4.394-9.814 9.814z"></path>
</symbol>
</defs>
</svg>
