<svg aria-hidden="true" style="position: absolute; width: 0; height: 0; overflow: hidden;" version="1.1" xmlns="http://www.w3.org/2000/svg" xmlns:xlink="http://www.w3.org/1999/xlink">
<defs>

<symbol id="icon-phone" viewBox="0 0 32 32">
<path d="M29.43 20.473h-.034a18.56 18.56 0 0 1-5.804-.924l.131.037c-.894-.295-1.991-.025-2.535.522l-3.599 2.649c-4.172-2.171-6.742-4.677-8.938-8.714l2.634-3.414a2.48 2.48 0 0 0 .638-2.555c-.577-1.654-.911-3.56-.911-5.544v-.028.001C11.01 1.125 9.855 0 8.442 0H2.566C1.151 0-.001 1.122-.001 2.503c0 15.818 13.201 28.689 29.43 28.689 1.415 0 2.567-1.125 2.567-2.503v-5.711c0-1.381-1.152-2.506-2.567-2.506z"/>
</symbol>

<symbol id="icon-location" viewBox="0 0 23 32">
<path d="M11.733 0c6.47 0 11.733 5.131 11.733 11.439a11.17 11.17 0 0 1-2.34 6.857l-8.67 11.379c-.021.028-.055.038-.079.064a.886.886 0 0 1-1.364-.062l-.002-.002c-2.5-3.243-7.076-9.31-8.834-11.597l-.002-.002-.011-.015a11.077 11.077 0 0 1-2.165-6.607v-.016.001C-.001 5.131 5.262 0 11.732 0zm0 17.609c3.484 0 6.33-2.773 6.33-6.17s-2.846-6.172-6.33-6.172-6.33 2.773-6.33 6.172c0 3.394 2.846 6.17 6.33 6.17z"/>
</symbol>

</defs>
</svg>