<svg aria-hidden="true" style="position: absolute; width: 0; height: 0; overflow: hidden;" version="1.1" xmlns="http://www.w3.org/2000/svg" xmlns:xlink="http://www.w3.org/1999/xlink">
<defs>
<symbol id="icon-element12" viewBox="0 0 32 32">
<path d="M32 16c0 8.837-7.163 16-16 16s-16-7.163-16-16c0-8.837 7.163-16 16-16s16 7.163 16 16zM9.599 16c0 3.535 2.866 6.401 6.401 6.401s6.401-2.866 6.401-6.401c0-3.535-2.866-6.401-6.401-6.401s-6.401 2.866-6.401 6.401z"></path>
</symbol>
<symbol id="icon-element11-1" viewBox="0 0 16 32">
<path fill="#d68362" style="fill: var(--color1, #d68362)" opacity="0.17" d="M16 16c0 8.837-7.163 16-16 16s-16-7.163-16-16c0-8.837 7.163-16 16-16s16 7.163 16 16zM-11.682 16c0 6.452 5.23 11.682 11.682 11.682s11.682-5.23 11.682-11.682c0-6.452-5.23-11.682-11.682-11.682s-11.682 5.23-11.682 11.682z"></path>
</symbol>
<symbol id="icon-element5" viewBox="0 0 16 32">
<path fill="#d68362" style="fill: var(--color1, #d68362)" opacity="0.15" d="M32 16c0 8.837-7.163 16-16 16s-16-7.163-16-16c0-8.837 7.163-16 16-16s16 7.163 16 16zM6.162 16c0 5.433 4.405 9.838 9.838 9.838s9.838-4.405 9.838-9.838c0-5.433-4.405-9.838-9.838-9.838s-9.838 4.405-9.838 9.838z"></path>
</symbol>
<symbol id="icon-element6" viewBox="0 0 32 32">
<path fill="#f3848c" style="fill: var(--color2, #f3848c)" opacity="0.12" d="M32 16c0 8.837-7.163 16-16 16s-16-7.163-16-16c0-8.837 7.163-16 16-16s16 7.163 16 16zM6.186 16c0 5.42 4.394 9.814 9.814 9.814s9.814-4.394 9.814-9.814c0-5.42-4.394-9.814-9.814-9.814s-9.814 4.394-9.814 9.814z"></path>
</symbol>
<symbol id="icon-element10" viewBox="0 0 32 32">
<path fill="#e6c01c" style="fill: var(--color3, #e6c01c)" opacity="0.06" d="M32 16c0 8.837-7.163 16-16 16s-16-7.163-16-16c0-8.837 7.163-16 16-16s16 7.163 16 16zM6.186 16c0 5.42 4.394 9.814 9.814 9.814s9.814-4.394 9.814-9.814c0-5.42-4.394-9.814-9.814-9.814s-9.814 4.394-9.814 9.814z"></path>
</symbol>
<symbol id="icon-element11" viewBox="0 0 32 32">
<path d="M32 16c0 8.837-7.163 16-16 16s-16-7.163-16-16c0-8.837 7.163-16 16-16s16 7.163 16 16zM9.599 16c0 3.535 2.866 6.401 6.401 6.401s6.401-2.866 6.401-6.401c0-3.535-2.866-6.401-6.401-6.401s-6.401 2.866-6.401 6.401z"></path>
</symbol>
<symbol id="icon-element17" viewBox="0 0 32 32">
<path d="M32 16c0 8.837-7.163 16-16 16s-16-7.163-16-16c0-8.837 7.163-16 16-16s16 7.163 16 16zM9.599 16c0 3.535 2.866 6.401 6.401 6.401s6.401-2.866 6.401-6.401c0-3.535-2.866-6.401-6.401-6.401s-6.401 2.866-6.401 6.401z"></path>
</symbol>
<symbol id="icon-element16" viewBox="0 0 22 32">
<path fill="#d68362" style="fill: var(--color1, #d68362)" opacity="0.17" d="M32 16c0 8.837-7.163 16-16 16s-16-7.163-16-16c0-8.837 7.163-16 16-16s16 7.163 16 16zM4.318 16c0 6.452 5.23 11.682 11.682 11.682s11.682-5.23 11.682-11.682c0-6.452-5.23-11.682-11.682-11.682s-11.682 5.23-11.682 11.682z"></path>
</symbol>

<symbol id="about-us-icon1" viewBox="0 0 32 32">
<path fill="#f3848c" style="fill: var(--color1, #f3848c)" opacity="0.12" d="M32 16c0 8.837-7.163 16-16 16s-16-7.163-16-16c0-8.837 7.163-16 16-16s16 7.163 16 16zM6.186 16c0 5.42 4.394 9.814 9.814 9.814s9.814-4.394 9.814-9.814c0-5.42-4.394-9.814-9.814-9.814s-9.814 4.394-9.814 9.814z"></path>
</symbol>
<symbol id="about-us-icon2" viewBox="0 0 32 32">
<path fill="#f3848c" style="fill: var(--color1, #f3848c)" opacity="0.12" d="M32 16c0 8.837-7.163 16-16 16s-16-7.163-16-16c0-8.837 7.163-16 16-16s16 7.163 16 16zM6.186 16c0 5.42 4.394 9.814 9.814 9.814s9.814-4.394 9.814-9.814c0-5.42-4.394-9.814-9.814-9.814s-9.814 4.394-9.814 9.814z"></path>
</symbol>

<symbol id="bagel-hero" viewBox="0 0 150 150">
<path d="M150 75c0 41.421-33.579 75-75 75S0 116.421 0 75 33.579 0 75 0s75 33.579 75 75ZM28.996 75c0 25.408 20.596 46.004 46.004 46.004 25.408 0 46.004-20.596 46.004-46.004 0-25.408-20.596-46.004-46.004-46.004-25.408 0-46.004 20.596-46.004 46.004Z"  fill-opacity=".12"/>
</symbol>

<symbol id="bagel-menu" viewBox="0 0 100 100">
<path d="M100 50c0 27.614-22.386 50-50 50S0 77.614 0 50 22.386 0 50 0s50 22.386 50 50Zm-86.97 0c0 20.418 16.552 36.97 36.97 36.97S86.97 70.418 86.97 50 70.418 13.03 50 13.03 13.03 29.582 13.03 50Z" fill-opacity=".12"/>
</symbol>

<symbol id="icon-mmenu-open" viewBox="0 0 40 40">
<path fill-rule="evenodd" clip-rule="evenodd" d="M8 14.6667V12H32V14.6667H8ZM8 21.3333H32V18.6667H8V21.3333ZM8 28H32V25.3333H8V28Z"/>
</symbol>

<symbol id="icon-mmenu-close" viewBox="0 0 40 40">
<path d="M29.6667 12.88L27.7867 11L20.3333 18.4533L12.88 11L11 12.88L18.4533 20.3333L11 27.7867L12.88 29.6667L20.3333 22.2133L27.7867 29.6667L29.6667 27.7867L22.2133 20.3333L29.6667 12.88Z"/>
</symbol>

<symbol id="icon-twitter" viewBox="0 0 32 32">
<path  d="M32 6.078c-1.19 0.522-2.458 0.868-3.78 1.036 1.36-0.812 2.398-2.088 2.886-3.626-1.268 0.756-2.668 1.29-4.16 1.588-1.204-1.282-2.92-2.076-4.792-2.076-3.632 0-6.556 2.948-6.556 6.562 0 0.52 0.044 1.020 0.152 1.496-5.454-0.266-10.28-2.88-13.522-6.862-0.566 0.982-0.898 2.106-0.898 3.316 0 2.272 1.17 4.286 2.914 5.452-1.054-0.020-2.088-0.326-2.964-0.808 0 0.020 0 0.046 0 0.072 0 3.188 2.274 5.836 5.256 6.446-0.534 0.146-1.116 0.216-1.72 0.216-0.42 0-0.844-0.024-1.242-0.112 0.85 2.598 3.262 4.508 6.13 4.57-2.232 1.746-5.066 2.798-8.134 2.798-0.538 0-1.054-0.024-1.57-0.090 2.906 1.874 6.35 2.944 10.064 2.944 12.072 0 18.672-10 18.672-18.668 0-0.29-0.010-0.57-0.024-0.848 1.302-0.924 2.396-2.078 3.288-3.406z"></path>
</symbol>

<symbol id="icon-insta" viewBox="0 0 32 32">
<path  d="M31.969 9.408c-0.075-1.7-0.35-2.869-0.744-3.882-0.406-1.075-1.032-2.038-1.851-2.838-0.8-0.813-1.769-1.444-2.832-1.844-1.019-0.394-2.182-0.669-3.882-0.744-1.713-0.081-2.257-0.1-6.601-0.1s-4.888 0.019-6.595 0.094c-1.7 0.075-2.869 0.35-3.882 0.744-1.075 0.406-2.038 1.031-2.838 1.85-0.813 0.8-1.444 1.769-1.844 2.832-0.394 1.019-0.669 2.182-0.744 3.882-0.081 1.713-0.1 2.257-0.1 6.601s0.019 4.888 0.094 6.595c0.075 1.7 0.35 2.869 0.744 3.882 0.406 1.075 1.038 2.038 1.85 2.838 0.8 0.813 1.769 1.444 2.832 1.844 1.019 0.394 2.182 0.669 3.882 0.744 1.706 0.075 2.25 0.094 6.595 0.094s4.888-0.019 6.595-0.094c1.7-0.075 2.869-0.35 3.882-0.744 2.151-0.832 3.851-2.532 4.682-4.682 0.394-1.019 0.669-2.182 0.744-3.882 0.075-1.707 0.094-2.251 0.094-6.595s-0.006-4.888-0.081-6.595zM29.087 22.473c-0.069 1.563-0.331 2.407-0.55 2.969-0.538 1.394-1.644 2.5-3.038 3.038-0.563 0.219-1.413 0.481-2.969 0.55-1.688 0.075-2.194 0.094-6.464 0.094s-4.782-0.019-6.464-0.094c-1.563-0.069-2.407-0.331-2.969-0.55-0.694-0.256-1.325-0.663-1.838-1.194-0.531-0.519-0.938-1.144-1.194-1.838-0.219-0.563-0.481-1.413-0.55-2.969-0.075-1.688-0.094-2.194-0.094-6.464s0.019-4.782 0.094-6.464c0.069-1.563 0.331-2.407 0.55-2.969 0.256-0.694 0.663-1.325 1.2-1.838 0.519-0.531 1.144-0.938 1.838-1.194 0.563-0.219 1.413-0.481 2.969-0.55 1.688-0.075 2.194-0.094 6.464-0.094 4.276 0 4.782 0.019 6.464 0.094 1.563 0.069 2.407 0.331 2.969 0.55 0.694 0.256 1.325 0.662 1.838 1.194 0.531 0.519 0.938 1.144 1.194 1.838 0.219 0.563 0.481 1.413 0.55 2.969 0.075 1.688 0.094 2.194 0.094 6.464s-0.019 4.77-0.094 6.458z"></path>
<path  d="M16.059 7.783c-4.538 0-8.22 3.682-8.22 8.22s3.682 8.22 8.22 8.22c4.538 0 8.22-3.682 8.22-8.22s-3.682-8.22-8.22-8.22zM16.059 21.335c-2.944 0-5.332-2.388-5.332-5.332s2.388-5.332 5.332-5.332c2.944 0 5.332 2.388 5.332 5.332s-2.388 5.332-5.332 5.332z"></path>
<path  d="M26.524 7.458c0 1.060-0.859 1.919-1.919 1.919s-1.919-0.859-1.919-1.919c0-1.060 0.859-1.919 1.919-1.919s1.919 0.859 1.919 1.919z"></path>
</symbol>

<symbol id="icon-facebook" viewBox="0 0 32 32">
<path  d="M21.329 5.313h2.921v-5.088c-0.504-0.069-2.237-0.225-4.256-0.225-4.212 0-7.097 2.649-7.097 7.519v4.481h-4.648v5.688h4.648v14.312h5.699v-14.311h4.46l0.708-5.688h-5.169v-3.919c0.001-1.644 0.444-2.769 2.735-2.769z"></path>
</symbol>

<symbol id="icon-desktop-contact-1" viewBox="0 0 32 32">
<path fill="#f3848c" style="fill: var(--color1, #f3848c)" opacity="0.12" d="M32 16c0 8.836-7.164 16-16 16s-16-7.164-16-16 7.164-16 16-16 16 7.164 16 16zM6.186 16c0 5.42 4.394 9.814 9.814 9.814s9.814-4.394 9.814-9.814c0-5.42-4.394-9.814-9.814-9.814s-9.814 4.394-9.814 9.814z"></path>
</symbol>
<symbol id="icon-desktop-contact-2" viewBox="0 0 32 32">
<path fill="#f3848c" style="fill: var(--color1, #f3848c)" opacity="0.12" d="M32 16c0 8.837-7.163 16-16 16s-16-7.163-16-16 7.163-16 16-16 16 7.163 16 16zM6.186 16c0 5.42 4.394 9.814 9.814 9.814s9.814-4.394 9.814-9.814-4.394-9.814-9.814-9.814-9.814 4.394-9.814 9.814z"></path>
</symbol>
<symbol id="icon-desktop-contact-3" viewBox="0 0 32 32">
<path d="M32 16c0 8.837-7.163 16-16 16s-16-7.163-16-16 7.163-16 16-16 16 7.163 16 16zM4.17 16c0 6.534 5.297 11.83 11.83 11.83s11.83-5.297 11.83-11.83v0c0-6.534-5.297-11.83-11.83-11.83s-11.83 5.297-11.83 11.83v0z"></path>
</symbol>
<symbol id="icon-desktop-footer-1" viewBox="0 0 32 32">
<path fill="#d68362" style="fill: var(--color2, #d68362)" opacity="0.17" d="M32 16c0 8.836-7.164 16-16 16s-16-7.164-16-16 7.164-16 16-16 16 7.164 16 16zM4.318 16c0 6.452 5.23 11.682 11.682 11.682s11.682-5.23 11.682-11.682-5.23-11.682-11.682-11.682-11.682 5.23-11.682 11.682z"></path>
</symbol>
<symbol id="icon-desktop-footer-2" viewBox="0 0 32 32">
<path fill="#e6c01c" style="fill: var(--color3, #e6c01c)" opacity="0.06" d="M32 16c0 8.836-7.164 16-16 16s-16-7.164-16-16 7.164-16 16-16 16 7.164 16 16zM6.186 16c0 5.42 4.394 9.814 9.814 9.814s9.814-4.394 9.814-9.814c0-5.42-4.394-9.814-9.814-9.814s-9.814 4.394-9.814 9.814z"></path>
</symbol>
<symbol id="icon-mobile-contact-1" viewBox="0 0 32 32">
<path fill="#f3848c" style="fill: var(--color1, #f3848c)" opacity="0.12" d="M32 16c0 8.837-7.163 16-16 16s-16-7.163-16-16 7.163-16 16-16 16 7.163 16 16zM6.186 16c0 5.42 4.394 9.814 9.814 9.814s9.814-4.394 9.814-9.814-4.394-9.814-9.814-9.814-9.814 4.394-9.814 9.814z"></path>
</symbol>
<symbol id="icon-mobile-contact-2" viewBox="0 0 32 32">
<path fill="#f3848c" style="fill: var(--color1, #f3848c)" opacity="0.12" d="M32 16c0 8.836-7.164 16-16 16s-16-7.164-16-16c0-8.836 7.164-16 16-16s16 7.164 16 16zM6.187 16c0 5.42 4.394 9.813 9.813 9.813s9.813-4.394 9.813-9.813v0c0-5.42-4.394-9.813-9.813-9.813s-9.813 4.394-9.813 9.813v0z"></path>
</symbol>
<symbol id="icon-mobile-footer" viewBox="0 0 32 32">
<path fill="#f3848c" style="fill: var(--color1, #f3848c)" opacity="0.12" d="M32 16c0 8.837-7.163 16-16 16s-16-7.163-16-16 7.163-16 16-16 16 7.163 16 16zM6.186 16c0 5.42 4.394 9.814 9.814 9.814s9.814-4.394 9.814-9.814c0-5.42-4.394-9.814-9.814-9.814s-9.814 4.394-9.814 9.814z"></path>
</symbol>
<symbol id="icon-tablet-contact" viewBox="0 0 26 32">
<path d="M32 16c0 8.836-7.164 16-16 16s-16-7.164-16-16 7.164-16 16-16 16 7.164 16 16zM4.17 16c0 6.534 5.297 11.83 11.83 11.83s11.83-5.297 11.83-11.83-5.297-11.83-11.83-11.83-11.83 5.297-11.83 11.83z"></path>
</symbol>
<symbol id="icon-tablet-footer-1" viewBox="0 0 32 32">
<path fill="#d68362" style="fill: var(--color2, #d68362)" opacity="0.17" d="M32 16c0 8.836-7.164 16-16 16s-16-7.164-16-16 7.164-16 16-16 16 7.164 16 16zM4.318 16c0 6.452 5.23 11.682 11.682 11.682s11.682-5.23 11.682-11.682-5.23-11.682-11.682-11.682-11.682 5.23-11.682 11.682z"></path>
</symbol>
<symbol id="icon-tablet-footer-2" viewBox="0 0 32 32">
<path d="M32 16c0 8.837-7.163 16-16 16s-16-7.163-16-16 7.163-16 16-16 16 7.163 16 16zM4.17 16c0 6.534 5.297 11.83 11.83 11.83s11.83-5.297 11.83-11.83v0c0-6.534-5.297-11.83-11.83-11.83s-11.83 5.297-11.83 11.83v0z"></path>
</symbol>
<symbol id="icon-desktop-reg-1" viewBox="0 0 32 32">
<path d="M32 16c0 8.836-7.164 16-16 16s-16-7.164-16-16 7.164-16 16-16 16 7.164 16 16zM4.17 16c0 6.534 5.297 11.83 11.83 11.83s11.83-5.297 11.83-11.83-5.297-11.83-11.83-11.83-11.83 5.297-11.83 11.83z"></path>
</symbol>
<symbol id="icon-desktop-reg-2" viewBox="0 0 32 32">
<path fill="#d68362" style="fill: var(--color2, #d68362)" opacity="0.15" d="M32 16c0 8.836-7.164 16-16 16s-16-7.164-16-16 7.164-16 16-16 16 7.164 16 16zM6.162 16c0 5.433 4.404 9.838 9.838 9.838s9.838-4.404 9.838-9.838-4.404-9.838-9.838-9.838-9.838 4.404-9.838 9.838z"></path>
</symbol>
<symbol id="icon-mobile-reg" viewBox="0 0 32 32">
<path fill="#f3848c" style="fill: var(--color1, #f3848c)" opacity="0.12" d="M32 16c0 8.837-7.163 16-16 16s-16-7.163-16-16 7.163-16 16-16 16 7.163 16 16zM6.186 16c0 5.42 4.394 9.814 9.814 9.814s9.814-4.394 9.814-9.814c0-5.42-4.394-9.814-9.814-9.814s-9.814 4.394-9.814 9.814z"></path>
</symbol>
<symbol id="icon-tablet-reg-1" viewBox="0 0 32 32">
<path fill="#f3848c" style="fill: var(--color1, #f3848c)" opacity="0.12" d="M32 16c0 8.837-7.163 16-16 16s-16-7.163-16-16 7.163-16 16-16 16 7.163 16 16zM6.186 16c0 5.42 4.394 9.814 9.814 9.814s9.814-4.394 9.814-9.814-4.394-9.814-9.814-9.814-9.814 4.394-9.814 9.814z"></path>
</symbol>
<symbol id="icon-tablet-reg-2" viewBox="0 0 32 32">
<path fill="#f3848c" style="fill: var(--color1, #f3848c)" opacity="0.12" d="M27 16c0 8.836-7.164 16-16 16s-16-7.164-16-16 7.164-16 16-16 16 7.164 16 16zM1.186 16c0 5.42 4.394 9.814 9.814 9.814s9.814-4.394 9.814-9.814c0-5.42-4.394-9.814-9.814-9.814s-9.814 4.394-9.814 9.814z"></path>
</symbol>

<symbol id="icon-phone" viewBox="0 0 32 32">
<path d="M29.43 20.473h-.034a18.56 18.56 0 0 1-5.804-.924l.131.037c-.894-.295-1.991-.025-2.535.522l-3.599 2.649c-4.172-2.171-6.742-4.677-8.938-8.714l2.634-3.414a2.48 2.48 0 0 0 .638-2.555c-.577-1.654-.911-3.56-.911-5.544v-.028.001C11.01 1.125 9.855 0 8.442 0H2.566C1.151 0-.001 1.122-.001 2.503c0 15.818 13.201 28.689 29.43 28.689 1.415 0 2.567-1.125 2.567-2.503v-5.711c0-1.381-1.152-2.506-2.567-2.506z"/>
</symbol>

<symbol id="icon-location" viewBox="0 0 23 32">
<path d="M11.733 0c6.47 0 11.733 5.131 11.733 11.439a11.17 11.17 0 0 1-2.34 6.857l-8.67 11.379c-.021.028-.055.038-.079.064a.886.886 0 0 1-1.364-.062l-.002-.002c-2.5-3.243-7.076-9.31-8.834-11.597l-.002-.002-.011-.015a11.077 11.077 0 0 1-2.165-6.607v-.016.001C-.001 5.131 5.262 0 11.732 0zm0 17.609c3.484 0 6.33-2.773 6.33-6.17s-2.846-6.172-6.33-6.172-6.33 2.773-6.33 6.172c0 3.394 2.846 6.17 6.33 6.17z"/>
</symbol>

</defs>
</svg>
