<svg aria-hidden="true" style="position: absolute; width: 0; height: 0; overflow: hidden;" version="1.1" xmlns="http://www.w3.org/2000/svg" xmlns:xlink="http://www.w3.org/1999/xlink">
<defs>
<symbol id="icon--2-1" viewBox="0 0 32 32">
<path fill="#f3848c" style="fill: var(--color1, #f3848c)" opacity="0.12" d="M32 16c0 8.837-7.163 16-16 16s-16-7.163-16-16c0-8.837 7.163-16 16-16s16 7.163 16 16zM6.186 16c0 5.42 4.394 9.814 9.814 9.814s9.814-4.394 9.814-9.814c0-5.42-4.394-9.814-9.814-9.814s-9.814 4.394-9.814 9.814z"></path>
</symbol>
<symbol id="icon--2-2" viewBox="0 0 32 32">
<path fill="#f3848c" style="fill: var(--color1, #f3848c)" opacity="0.12" d="M32 16c0 8.837-7.163 16-16 16s-16-7.163-16-16c0-8.837 7.163-16 16-16s16 7.163 16 16zM6.186 16c0 5.42 4.394 9.814 9.814 9.814s9.814-4.394 9.814-9.814c0-5.42-4.394-9.814-9.814-9.814s-9.814 4.394-9.814 9.814z"></path>
</symbol>
<symbol id="icon--2" viewBox="0 0 32 32">
<path fill="#f3848c" style="fill: var(--color1, #f3848c)" opacity="0.12" d="M32 16c0 8.837-7.163 16-16 16s-16-7.163-16-16c0-8.837 7.163-16 16-16s16 7.163 16 16zM6.186 16c0 5.42 4.394 9.814 9.814 9.814s9.814-4.394 9.814-9.814c0-5.42-4.394-9.814-9.814-9.814s-9.814 4.394-9.814 9.814z"></path>
</symbol>
<symbol id="icon--3-1" viewBox="0 0 32 32">
<path   fill="#DAD8D8"  d="M32 16c0 8.837-7.163 16-16 16s-16-7.163-16-16c0-8.837 7.163-16 16-16s16 7.163 16 16zM4.17 16c0 6.534 5.297 11.83 11.83 11.83s11.83-5.297 11.83-11.83c0-6.534-5.297-11.83-11.83-11.83s-11.83 5.297-11.83 11.83z"></path>
</symbol>
<symbol id="icon--3-2" viewBox="0 0 32 32">
<path fill="#DAD8D8"  d="M32 16c0 8.837-7.163 16-16 16s-16-7.163-16-16c0-8.837 7.163-16 16-16s16 7.163 16 16zM4.17 16c0 6.534 5.297 11.83 11.83 11.83s11.83-5.297 11.83-11.83c0-6.534-5.297-11.83-11.83-11.83s-11.83 5.297-11.83 11.83z"></path>
</symbol>
<symbol id="icon--3" viewBox="0 0 32 32">
<path fill="#D7D4D4" d="M32 16c0 8.837-7.163 16-16 16s-16-7.163-16-16c0-8.837 7.163-16 16-16s16 7.163 16 16zM4.17 16c0 6.534 5.297 11.83 11.83 11.83s11.83-5.297 11.83-11.83c0-6.534-5.297-11.83-11.83-11.83s-11.83 5.297-11.83 11.83z"></path>
</symbol>
<symbol id="icon--4" viewBox="0 0 32 32">
<path fill="#E2E1E1" d="M32 16c0 8.837-7.163 16-16 16s-16-7.163-16-16c0-8.837 7.163-16 16-16s16 7.163 16 16zM9.599 16c0 3.535 2.866 6.401 6.401 6.401s6.401-2.866 6.401-6.401c0-3.535-2.866-6.401-6.401-6.401s-6.401 2.866-6.401 6.401z"></path>
</symbol>
<symbol id="icon--5" viewBox="0 0 20 32">
<path fill="#d68362" style="fill: var(--color2, #d68362)" opacity="0.15" d="M32 16c0 8.837-7.163 16-16 16s-16-7.163-16-16c0-8.837 7.163-16 16-16s16 7.163 16 16zM6.162 16c0 5.433 4.405 9.838 9.838 9.838s9.838-4.405 9.838-9.838c0-5.433-4.405-9.838-9.838-9.838s-9.838 4.405-9.838 9.838z"></path>
</symbol>
<symbol id="icon--6" viewBox="0 0 32 32">
<path fill="#f3848c" style="fill: var(--color1, #f3848c)" opacity="0.12" d="M32 16c0 8.837-7.163 16-16 16s-16-7.163-16-16c0-8.837 7.163-16 16-16s16 7.163 16 16zM6.186 16c0 5.42 4.394 9.814 9.814 9.814s9.814-4.394 9.814-9.814c0-5.42-4.394-9.814-9.814-9.814s-9.814 4.394-9.814 9.814z"></path>
</symbol>
<symbol id="icon--7-1" viewBox="0 0 32 32">
<path fill="#d68362" style="fill: var(--color2, #d68362)" opacity="0.17" d="M32 16c0 8.837-7.163 16-16 16s-16-7.163-16-16c0-8.837 7.163-16 16-16s16 7.163 16 16zM4.318 16c0 6.452 5.23 11.682 11.682 11.682s11.682-5.23 11.682-11.682c0-6.452-5.23-11.682-11.682-11.682s-11.682 5.23-11.682 11.682z"></path>
</symbol>
<symbol id="icon--7" viewBox="0 0 14 32">
<path fill="#d68362" style="fill: var(--color2, #d68362)" opacity="0.17" d="M14.080 16c0 8.837-7.163 16-16 16s-16-7.163-16-16c0-8.837 7.163-16 16-16s16 7.163 16 16zM-13.602 16c0 6.452 5.23 11.682 11.682 11.682s11.682-5.23 11.682-11.682c0-6.452-5.23-11.682-11.682-11.682s-11.682 5.23-11.682 11.682z"></path>
</symbol>
<symbol id="icon--9-1" viewBox="0 0 32 32">
<path d="M32 16c0 8.836-7.164 16-16 16s-16-7.164-16-16c0-8.837 7.163-16 16-16s16 7.163 16 16zM4.17 16c0 6.534 5.297 11.83 11.83 11.83s11.83-5.296 11.83-11.83c0-6.534-5.296-11.83-11.83-11.83s-11.83 5.297-11.83 11.83z"></path>
</symbol>
<symbol id="icon--9-2" viewBox="0 0 32 32">
<path d="M32 16c0 8.836-7.164 16-16 16s-16-7.164-16-16c0-8.837 7.163-16 16-16s16 7.163 16 16zM4.17 16c0 6.534 5.297 11.83 11.83 11.83s11.83-5.296 11.83-11.83c0-6.534-5.296-11.83-11.83-11.83s-11.83 5.297-11.83 11.83z"></path>
</symbol>
<symbol id="icon--9" viewBox="0 0 32 32">
<path fill="#BDBDBD" d="M32 16c0 8.836-7.164 16-16 16s-16-7.164-16-16c0-8.837 7.163-16 16-16s16 7.163 16 16zM4.17 16c0 6.534 5.297 11.83 11.83 11.83s11.83-5.296 11.83-11.83c0-6.534-5.296-11.83-11.83-11.83s-11.83 5.297-11.83 11.83z"></path>
</symbol>
<symbol id="icon--12" viewBox="0 0 32 32">
<path d="M32 16c0 8.837-7.163 16-16 16s-16-7.163-16-16c0-8.837 7.163-16 16-16s16 7.163 16 16zM9.599 16c0 3.535 2.866 6.401 6.401 6.401s6.401-2.866 6.401-6.401c0-3.535-2.866-6.401-6.401-6.401s-6.401 2.866-6.401 6.401z"></path>
</symbol>
</defs>
</svg>
