<svg aria-hidden="true" style="position: absolute; width: 0; height: 0; overflow: hidden;" version="1.1" xmlns="http://www.w3.org/2000/svg" xmlns:xlink="http://www.w3.org/1999/xlink">
<defs>
<symbol id="icon-untitled" viewBox="0 0 32 32">
<path fill="#fff" style="fill: var(--color1, #fff); stroke: var(--color2, #f3848c)" stroke="#f3848c" stroke-linejoin="miter" stroke-linecap="butt" stroke-miterlimit="4" stroke-width="1.3333" d="M31.333 16c0 8.468-6.865 15.333-15.333 15.333s-15.333-6.865-15.333-15.333c0-8.468 6.865-15.333 15.333-15.333s15.333 6.865 15.333 15.333z"></path>
<path fill="#fff" style="fill: var(--color1, #fff)" d="M29.333 16c0 7.364-5.97 13.333-13.333 13.333s-13.333-5.97-13.333-13.333c0-7.364 5.97-13.333 13.333-13.333s13.333 5.97 13.333 13.333z"></path>
<path fill="none" stroke="#f3848c" style="stroke: var(--color2, #f3848c)" stroke-linejoin="miter" stroke-linecap="round" stroke-miterlimit="4" stroke-width="0.6667" d="M29 16c0 7.18-5.82 13-13 13s-13-5.82-13-13c0-7.18 5.82-13 13-13s13 5.82 13 13z"></path>
<path fill="#000" style="fill: var(--color3, #000)" d="M9.333 10.953c0 1.413 1.031 2.586 2.381 2.814v4.329c0 0.126 0.050 0.247 0.139 0.337s0.21 0.14 0.337 0.14h7.62c0.126 0 0.247-0.050 0.337-0.14s0.139-0.21 0.139-0.337v-4.329c1.349-0.228 2.38-1.401 2.38-2.814 0-1.576-1.281-2.857-2.857-2.857h-1.078c-0.603-0.862-1.602-1.429-2.732-1.429s-2.129 0.566-2.732 1.429h-1.078c-0.758 0.001-1.484 0.302-2.019 0.838s-0.837 1.262-0.838 2.019zM12.666 17.144h6.668v0.475h-6.668v-0.475zM12.191 9.048h0.616c-0.093 0.309-0.14 0.63-0.14 0.952 0 0.126 0.050 0.247 0.139 0.337s0.21 0.139 0.337 0.139c0.126 0 0.247-0.050 0.337-0.139s0.14-0.21 0.14-0.337c0-1.313 1.068-2.381 2.381-2.381s2.381 1.068 2.381 2.381c0 0.126 0.050 0.247 0.14 0.337s0.21 0.139 0.337 0.139 0.247-0.050 0.337-0.139c0.089-0.089 0.139-0.21 0.139-0.337 0-0.331-0.050-0.65-0.141-0.952h0.616c1.051 0 1.905 0.854 1.905 1.905-0.001 0.504-0.201 0.988-0.557 1.345s-0.84 0.558-1.344 0.56l-0.003-0c-0.063-0-0.125 0.012-0.183 0.036s-0.11 0.059-0.155 0.104c-0.044 0.044-0.080 0.097-0.104 0.155s-0.036 0.12-0.036 0.183l0.001 0.005v2.853h-6.668v-2.855l0-0.002c0-0.063-0.012-0.125-0.036-0.183s-0.059-0.111-0.103-0.155c-0.044-0.044-0.097-0.079-0.155-0.103s-0.12-0.036-0.183-0.036l-0.003 0c-0.504-0.001-0.988-0.202-1.344-0.559s-0.557-0.841-0.557-1.345c0-1.051 0.854-1.905 1.905-1.905zM21.237 20.477h-10.474c-0.126 0-0.247 0.050-0.337 0.139s-0.139 0.21-0.139 0.337c0 0.126 0.050 0.247 0.139 0.337s0.21 0.139 0.337 0.139h10.474c0.126 0 0.247-0.050 0.337-0.139s0.139-0.21 0.139-0.337c0-0.126-0.050-0.247-0.139-0.337s-0.21-0.139-0.337-0.139zM21.237 21.906h-10.474c-0.126 0-0.247 0.050-0.337 0.139s-0.139 0.21-0.139 0.337c0 0.126 0.050 0.247 0.139 0.337s0.21 0.139 0.337 0.139h10.474c0.126 0 0.247-0.050 0.337-0.139s0.139-0.21 0.139-0.337c0-0.126-0.050-0.247-0.139-0.337s-0.21-0.139-0.337-0.139zM18.856 23.347h-5.713c-0.126 0-0.247 0.050-0.337 0.139s-0.139 0.21-0.139 0.337c0 0.126 0.050 0.247 0.139 0.337s0.21 0.139 0.337 0.139h5.713c0.126 0 0.247-0.050 0.337-0.139s0.139-0.21 0.139-0.337c0-0.126-0.050-0.247-0.139-0.337s-0.211-0.139-0.337-0.139z"></path>
</symbol>
</defs>
</svg>
